<svg width="571" height="544" viewBox="0 0 571 544" fill="none" xmlns="http://www.w3.org/2000/svg">
<g filter="url(#filter0_d_219_7)">
<rect x="27" y="5" width="293" height="424" rx="15" fill="#E2FCEF"/>
<rect x="27.5" y="5.5" width="292" height="423" rx="14.5" stroke="black"/>
</g>
<path d="M59.208 58.6592L51.3447 58.7236C51.4736 57.0049 51.7637 55.4258 52.2148 53.9863C52.666 52.5469 53.3105 51.2041 54.1484 49.958C54.9863 48.6904 56.082 47.5088 57.4355 46.4131C58.3379 45.6826 59.251 44.9092 60.1748 44.0928C61.1201 43.2764 61.9365 42.3848 62.624 41.418C63.3115 40.4297 63.7412 39.3125 63.9131 38.0664C64.0635 37.1426 64.042 36.2725 63.8486 35.4561C63.6768 34.6396 63.3008 33.9844 62.7207 33.4902C62.1406 32.9746 61.3242 32.7061 60.2715 32.6846C59.1328 32.6631 58.1553 32.9209 57.3389 33.458C56.5225 33.9736 55.8672 34.6719 55.373 35.5527C54.8789 36.4336 54.5244 37.3789 54.3096 38.3887L45.2539 38.4531C45.5117 35.6172 46.3496 33.2217 47.7676 31.2666C49.207 29.29 51.0547 27.8076 53.3105 26.8193C55.5879 25.8311 58.1016 25.3584 60.8516 25.4014C63.3652 25.4658 65.5889 25.9814 67.5225 26.9482C69.4775 27.8936 70.9814 29.2793 72.0342 31.1055C73.0869 32.9102 73.5059 35.1338 73.291 37.7764C73.1406 39.7744 72.5713 41.5469 71.583 43.0938C70.6162 44.6406 69.4238 46.0479 68.0059 47.3154C66.6094 48.5615 65.1914 49.7646 63.752 50.9248C62.4199 51.9561 61.3994 53.0947 60.6904 54.3408C59.9814 55.5654 59.4873 57.0049 59.208 58.6592ZM48.3477 68.7783C48.3262 67.3174 48.8096 66.125 49.7979 65.2012C50.7861 64.2773 51.9893 63.8047 53.4072 63.7832C54.7822 63.7617 55.9639 64.1914 56.9521 65.0723C57.9619 65.9316 58.4668 67.0596 58.4668 68.4561C58.5098 69.917 58.0264 71.1094 57.0166 72.0332C56.0068 72.957 54.793 73.4189 53.375 73.4189C52.0215 73.4404 50.8506 73.0215 49.8623 72.1621C48.874 71.3027 48.3691 70.1748 48.3477 68.7783Z" fill="#9B287B"/>
<path d="M283.792 376.341L291.655 376.276C291.526 377.995 291.236 379.574 290.785 381.014C290.334 382.453 289.689 383.796 288.852 385.042C288.014 386.31 286.918 387.491 285.564 388.587C284.662 389.317 283.749 390.091 282.825 390.907C281.88 391.724 281.063 392.615 280.376 393.582C279.688 394.57 279.259 395.687 279.087 396.934C278.937 397.857 278.958 398.728 279.151 399.544C279.323 400.36 279.699 401.016 280.279 401.51C280.859 402.025 281.676 402.294 282.729 402.315C283.867 402.337 284.845 402.079 285.661 401.542C286.478 401.026 287.133 400.328 287.627 399.447C288.121 398.566 288.476 397.621 288.69 396.611L297.746 396.547C297.488 399.383 296.65 401.778 295.232 403.733C293.793 405.71 291.945 407.192 289.689 408.181C287.412 409.169 284.898 409.642 282.148 409.599C279.635 409.534 277.411 409.019 275.478 408.052C273.522 407.106 272.019 405.721 270.966 403.895C269.913 402.09 269.494 399.866 269.709 397.224C269.859 395.226 270.429 393.453 271.417 391.906C272.384 390.359 273.576 388.952 274.994 387.685C276.391 386.438 277.809 385.235 279.248 384.075C280.58 383.044 281.601 381.905 282.31 380.659C283.019 379.435 283.513 377.995 283.792 376.341ZM294.652 366.222C294.674 367.683 294.19 368.875 293.202 369.799C292.214 370.723 291.011 371.195 289.593 371.217C288.218 371.238 287.036 370.809 286.048 369.928C285.038 369.068 284.533 367.94 284.533 366.544C284.49 365.083 284.974 363.891 285.983 362.967C286.993 362.043 288.207 361.581 289.625 361.581C290.979 361.56 292.149 361.979 293.138 362.838C294.126 363.697 294.631 364.825 294.652 366.222Z" fill="black"/>
<g filter="url(#filter1_d_219_7)">
<rect x="139" y="54" width="293" height="424" rx="15" fill="#E2FCEF"/>
<rect x="139.5" y="54.5" width="292" height="423" rx="14.5" stroke="black"/>
</g>
<g filter="url(#filter2_d_219_7)">
<rect x="260" y="107" width="293" height="424" rx="15" fill="#E2FCEF"/>
<rect x="260.5" y="107.5" width="292" height="423" rx="14.5" stroke="black"/>
</g>
<path d="M171.208 107.659L163.345 107.724C163.474 106.005 163.764 104.426 164.215 102.986C164.666 101.547 165.311 100.204 166.148 98.958C166.986 97.6904 168.082 96.5088 169.436 95.4131C170.338 94.6826 171.251 93.9092 172.175 93.0928C173.12 92.2764 173.937 91.3848 174.624 90.418C175.312 89.4297 175.741 88.3125 175.913 87.0664C176.063 86.1426 176.042 85.2725 175.849 84.4561C175.677 83.6396 175.301 82.9844 174.721 82.4902C174.141 81.9746 173.324 81.7061 172.271 81.6846C171.133 81.6631 170.155 81.9209 169.339 82.458C168.522 82.9736 167.867 83.6719 167.373 84.5527C166.879 85.4336 166.524 86.3789 166.31 87.3887L157.254 87.4531C157.512 84.6172 158.35 82.2217 159.768 80.2666C161.207 78.29 163.055 76.8076 165.311 75.8193C167.588 74.8311 170.102 74.3584 172.852 74.4014C175.365 74.4658 177.589 74.9814 179.522 75.9482C181.478 76.8936 182.981 78.2793 184.034 80.1055C185.087 81.9102 185.506 84.1338 185.291 86.7764C185.141 88.7744 184.571 90.5469 183.583 92.0938C182.616 93.6406 181.424 95.0479 180.006 96.3154C178.609 97.5615 177.191 98.7646 175.752 99.9248C174.42 100.956 173.399 102.095 172.69 103.341C171.981 104.565 171.487 106.005 171.208 107.659ZM160.348 117.778C160.326 116.317 160.81 115.125 161.798 114.201C162.786 113.277 163.989 112.805 165.407 112.783C166.782 112.762 167.964 113.191 168.952 114.072C169.962 114.932 170.467 116.06 170.467 117.456C170.51 118.917 170.026 120.109 169.017 121.033C168.007 121.957 166.793 122.419 165.375 122.419C164.021 122.44 162.851 122.021 161.862 121.162C160.874 120.303 160.369 119.175 160.348 117.778Z" fill="#9B287B"/>
<path d="M292.208 160.659L284.345 160.724C284.474 159.005 284.764 157.426 285.215 155.986C285.666 154.547 286.311 153.204 287.148 151.958C287.986 150.69 289.082 149.509 290.436 148.413C291.338 147.683 292.251 146.909 293.175 146.093C294.12 145.276 294.937 144.385 295.624 143.418C296.312 142.43 296.741 141.312 296.913 140.066C297.063 139.143 297.042 138.272 296.849 137.456C296.677 136.64 296.301 135.984 295.721 135.49C295.141 134.975 294.324 134.706 293.271 134.685C292.133 134.663 291.155 134.921 290.339 135.458C289.522 135.974 288.867 136.672 288.373 137.553C287.879 138.434 287.524 139.379 287.31 140.389L278.254 140.453C278.512 137.617 279.35 135.222 280.768 133.267C282.207 131.29 284.055 129.808 286.311 128.819C288.588 127.831 291.102 127.358 293.852 127.401C296.365 127.466 298.589 127.981 300.522 128.948C302.478 129.894 303.981 131.279 305.034 133.105C306.087 134.91 306.506 137.134 306.291 139.776C306.141 141.774 305.571 143.547 304.583 145.094C303.616 146.641 302.424 148.048 301.006 149.315C299.609 150.562 298.191 151.765 296.752 152.925C295.42 153.956 294.399 155.095 293.69 156.341C292.981 157.565 292.487 159.005 292.208 160.659ZM281.348 170.778C281.326 169.317 281.81 168.125 282.798 167.201C283.786 166.277 284.989 165.805 286.407 165.783C287.782 165.762 288.964 166.191 289.952 167.072C290.962 167.932 291.467 169.06 291.467 170.456C291.51 171.917 291.026 173.109 290.017 174.033C289.007 174.957 287.793 175.419 286.375 175.419C285.021 175.44 283.851 175.021 282.862 174.162C281.874 173.303 281.369 172.175 281.348 170.778Z" fill="#9B287B"/>
<path d="M516.792 478.341L524.655 478.276C524.526 479.995 524.236 481.574 523.785 483.014C523.334 484.453 522.689 485.796 521.852 487.042C521.014 488.31 519.918 489.491 518.564 490.587C517.662 491.317 516.749 492.091 515.825 492.907C514.88 493.724 514.063 494.615 513.376 495.582C512.688 496.57 512.259 497.687 512.087 498.934C511.937 499.857 511.958 500.728 512.151 501.544C512.323 502.36 512.699 503.016 513.279 503.51C513.859 504.025 514.676 504.294 515.729 504.315C516.867 504.337 517.845 504.079 518.661 503.542C519.478 503.026 520.133 502.328 520.627 501.447C521.121 500.566 521.476 499.621 521.69 498.611L530.746 498.547C530.488 501.383 529.65 503.778 528.232 505.733C526.793 507.71 524.945 509.192 522.689 510.181C520.412 511.169 517.898 511.642 515.148 511.599C512.635 511.534 510.411 511.019 508.478 510.052C506.522 509.106 505.019 507.721 503.966 505.895C502.913 504.09 502.494 501.866 502.709 499.224C502.859 497.226 503.429 495.453 504.417 493.906C505.384 492.359 506.576 490.952 507.994 489.685C509.391 488.438 510.809 487.235 512.248 486.075C513.58 485.044 514.601 483.905 515.31 482.659C516.019 481.435 516.513 479.995 516.792 478.341ZM527.652 468.222C527.674 469.683 527.19 470.875 526.202 471.799C525.214 472.723 524.011 473.195 522.593 473.217C521.218 473.238 520.036 472.809 519.048 471.928C518.038 471.068 517.533 469.94 517.533 468.544C517.49 467.083 517.974 465.891 518.983 464.967C519.993 464.043 521.207 463.581 522.625 463.581C523.979 463.56 525.149 463.979 526.138 464.838C527.126 465.697 527.631 466.825 527.652 468.222Z" fill="#9B287B"/>
<path d="M17.7188 284.5L9.8125 330H0.65625L8.53125 284.5H17.7188ZM31.9375 303.938L30.6562 311.25H10.5312L11.8125 303.938H31.9375ZM37.4062 284.5L36.1562 291.844H13.9062L15.1875 284.5H37.4062ZM38.375 308.062L46.3438 299.656L37.25 296.875L39.875 291.625L48.9062 295.594L50.2188 284.5H56.1562L53.625 295.375L63.3438 291.688L64.1875 297.531L53.8438 300.375L58.9375 308.875L53.9375 312.062L49.9375 302.906L42.9062 311.625L38.375 308.062ZM115.062 313.094C114.729 315.135 114.167 317.208 113.375 319.312C112.604 321.396 111.583 323.312 110.312 325.062C109.042 326.792 107.5 328.177 105.688 329.219C103.896 330.26 101.812 330.74 99.4375 330.656C98.0417 330.615 96.8438 330.312 95.8438 329.75C94.8646 329.167 94.0833 328.396 93.5 327.438C92.9167 326.479 92.5208 325.406 92.3125 324.219C92.125 323.031 92.125 321.802 92.3125 320.531L96.8125 302.469H103.031L98.5312 320.531C98.4062 321.052 98.3229 321.615 98.2812 322.219C98.2396 322.823 98.2708 323.385 98.375 323.906C98.4792 324.427 98.7083 324.865 99.0625 325.219C99.4167 325.573 99.9583 325.771 100.688 325.812C102.125 325.875 103.354 325.479 104.375 324.625C105.417 323.75 106.281 322.635 106.969 321.281C107.677 319.906 108.229 318.5 108.625 317.062C109.042 315.625 109.344 314.375 109.531 313.312C109.927 311.021 110.115 308.781 110.094 306.594C110.094 304.406 109.823 302.365 109.281 300.469C108.74 298.573 107.896 296.896 106.75 295.438C105.604 293.979 104.094 292.833 102.219 292C100.344 291.167 98.0625 290.729 95.375 290.688C92.6042 290.625 90.0208 291.052 87.625 291.969C85.25 292.885 83.0833 294.156 81.125 295.781C79.1875 297.406 77.4688 299.292 75.9688 301.438C74.4688 303.562 73.2188 305.844 72.2188 308.281C71.2188 310.719 70.4792 313.188 70 315.688C69.5625 317.979 69.3438 320.24 69.3438 322.469C69.3438 324.677 69.6042 326.76 70.125 328.719C70.6667 330.677 71.5208 332.417 72.6875 333.938C73.8542 335.458 75.375 336.646 77.25 337.5C79.1458 338.375 81.4479 338.823 84.1562 338.844C85.9688 338.865 87.7604 338.677 89.5312 338.281C91.3229 337.906 93.0521 337.375 94.7188 336.688L95.5625 341.469C93.9375 342.51 92.0938 343.219 90.0312 343.594C87.9896 343.99 86.0208 344.177 84.125 344.156C80.7708 344.135 77.8333 343.615 75.3125 342.594C72.8125 341.594 70.7083 340.198 69 338.406C67.3125 336.635 66.0104 334.562 65.0938 332.188C64.1771 329.812 63.625 327.229 63.4375 324.438C63.2708 321.625 63.4375 318.698 63.9375 315.656C64.5 312.531 65.4062 309.5 66.6562 306.562C67.9062 303.604 69.4688 300.865 71.3438 298.344C73.2188 295.802 75.375 293.583 77.8125 291.688C80.2708 289.771 82.9688 288.292 85.9062 287.25C88.8646 286.188 92.0312 285.677 95.4062 285.719C98.5729 285.76 101.354 286.271 103.75 287.25C106.167 288.229 108.198 289.583 109.844 291.312C111.51 293.042 112.802 295.052 113.719 297.344C114.635 299.635 115.198 302.125 115.406 304.812C115.635 307.479 115.521 310.24 115.062 313.094ZM83.9688 316.812C83.8438 317.438 83.7188 318.208 83.5938 319.125C83.4896 320.042 83.4688 320.958 83.5312 321.875C83.6146 322.771 83.8646 323.542 84.2812 324.188C84.7188 324.812 85.4271 325.146 86.4062 325.188C87.2812 325.25 88.0729 325.042 88.7812 324.562C89.4896 324.062 90.1042 323.427 90.625 322.656C91.1667 321.885 91.6354 321.094 92.0312 320.281C92.4271 319.448 92.7604 318.698 93.0312 318.031L95.3125 321.188C94.8333 322.396 94.25 323.573 93.5625 324.719C92.875 325.865 92.0625 326.885 91.125 327.781C90.2083 328.677 89.1667 329.385 88 329.906C86.8542 330.406 85.5521 330.635 84.0938 330.594C82.3229 330.531 80.9062 330.052 79.8438 329.156C78.7812 328.26 78 327.115 77.5 325.719C77.0208 324.302 76.7604 322.812 76.7188 321.25C76.6979 319.667 76.8125 318.188 77.0625 316.812C77.3542 315.188 77.8125 313.531 78.4375 311.844C79.0833 310.156 79.8854 308.542 80.8438 307C81.8021 305.458 82.9167 304.083 84.1875 302.875C85.4583 301.667 86.8854 300.719 88.4688 300.031C90.0521 299.344 91.7812 299.01 93.6562 299.031C95.4688 299.073 97.1042 299.417 98.5625 300.062C100.042 300.688 101.5 301.531 102.938 302.594L99.5312 306.781C98.7812 306.031 97.9583 305.448 97.0625 305.031C96.1875 304.615 95.2188 304.385 94.1562 304.344C92.5104 304.302 91.0938 304.677 89.9062 305.469C88.7396 306.24 87.7604 307.26 86.9688 308.531C86.1771 309.802 85.5312 311.177 85.0312 312.656C84.5521 314.115 84.1979 315.5 83.9688 316.812ZM146.625 314.938L155.562 314.812C155.167 318.167 154.031 321.042 152.156 323.438C150.302 325.812 147.969 327.625 145.156 328.875C142.344 330.104 139.292 330.688 136 330.625C132.958 330.562 130.396 329.917 128.312 328.688C126.229 327.438 124.594 325.771 123.406 323.688C122.219 321.604 121.438 319.281 121.062 316.719C120.688 314.156 120.667 311.531 121 308.844L121.438 305.688C121.854 302.854 122.615 300.115 123.719 297.469C124.844 294.823 126.312 292.469 128.125 290.406C129.938 288.344 132.083 286.719 134.562 285.531C137.042 284.344 139.854 283.781 143 283.844C146.292 283.906 149.073 284.615 151.344 285.969C153.635 287.302 155.396 289.167 156.625 291.562C157.875 293.938 158.573 296.719 158.719 299.906L149.625 299.875C149.646 298.188 149.438 296.708 149 295.438C148.583 294.146 147.854 293.146 146.812 292.438C145.771 291.708 144.333 291.312 142.5 291.25C140.5 291.188 138.802 291.583 137.406 292.438C136.01 293.292 134.854 294.438 133.938 295.875C133.042 297.312 132.333 298.885 131.812 300.594C131.312 302.302 130.938 303.979 130.688 305.625L130.25 308.875C130.083 310.229 129.969 311.729 129.906 313.375C129.844 315 129.979 316.552 130.312 318.031C130.646 319.51 131.292 320.74 132.25 321.719C133.208 322.677 134.635 323.188 136.531 323.25C138.406 323.312 140.021 323.021 141.375 322.375C142.75 321.729 143.865 320.771 144.719 319.5C145.594 318.229 146.229 316.708 146.625 314.938ZM176.281 284.5L168.375 330H159.219L167.094 284.5H176.281ZM203.031 284.5L181.469 307.156L169.281 318.406L169.219 308.844L177.562 299.406L191.188 284.5H203.031ZM184.688 330L175.188 308.625L182.562 303.094L195.062 330H184.688ZM240.469 284.5L232.594 330H223.438L231.344 284.5H240.469ZM254.031 284.5L252.75 291.844H216.719L218 284.5H254.031ZM285.469 303.031L284.188 310.344H261.094L262.375 303.031H285.469ZM268.344 284.5L260.438 330H251.281L259.156 284.5H268.344ZM295.156 284.5L287.25 330H278.156L286.031 284.5H295.156ZM326.125 322.688L324.844 330H301.312L302.562 322.688H326.125ZM312.219 284.5L304.312 330H295.156L303.031 284.5H312.219ZM326.469 303.031L325.219 310.156H304.75L306 303.031H326.469ZM332.688 284.5L331.406 291.844H307.906L309.219 284.5H332.688ZM359.938 330H349.812L351.125 322.688L360.219 322.75C363.052 322.75 365.438 322.083 367.375 320.75C369.312 319.396 370.833 317.625 371.938 315.438C373.062 313.229 373.823 310.844 374.219 308.281L374.5 306.062C374.688 304.479 374.75 302.875 374.688 301.25C374.625 299.604 374.323 298.083 373.781 296.688C373.26 295.292 372.427 294.156 371.281 293.281C370.135 292.406 368.583 291.938 366.625 291.875L356.25 291.844L357.531 284.5L366.906 284.531C369.948 284.594 372.594 285.219 374.844 286.406C377.094 287.573 378.938 289.156 380.375 291.156C381.812 293.156 382.812 295.448 383.375 298.031C383.938 300.594 384.052 303.292 383.719 306.125L383.469 308.344C383.052 311.385 382.188 314.229 380.875 316.875C379.583 319.521 377.906 321.833 375.844 323.812C373.802 325.771 371.438 327.302 368.75 328.406C366.062 329.49 363.125 330.021 359.938 330ZM362.906 284.5L355 330H345.844L353.719 284.5H362.906ZM417.188 322.688L415.906 330H392.375L393.625 322.688H417.188ZM403.281 284.5L395.375 330H386.219L394.094 284.5H403.281ZM417.531 303.031L416.281 310.156H395.812L397.062 303.031H417.531ZM423.75 284.5L422.469 291.844H398.969L400.281 284.5H423.75ZM445.625 292.75L427.312 330H417.25L441.562 284.5H448L445.625 292.75ZM449.25 330L443.688 291.781L444.031 284.5H450.062L458.656 330H449.25ZM451.562 313.062L450.281 320.406H426.875L428.156 313.062H451.562ZM492.625 322.688L491.344 330H469.062L470.344 322.688H492.625ZM479.969 284.5L472.062 330H462.906L470.781 284.5H479.969ZM527.5 322.688L526.219 330H502.688L503.938 322.688H527.5ZM513.594 284.5L505.688 330H496.531L504.406 284.5H513.594ZM527.844 303.031L526.594 310.156H506.125L507.375 303.031H527.844ZM534.062 284.5L532.781 291.844H509.281L510.594 284.5H534.062ZM539.344 284.5L555.375 284.531C558.146 284.573 560.656 285.083 562.906 286.062C565.177 287.042 566.938 288.51 568.188 290.469C569.458 292.427 569.99 294.917 569.781 297.938C569.573 300.417 568.969 302.51 567.969 304.219C566.99 305.927 565.667 307.375 564 308.562C562.354 309.75 560.458 310.771 558.312 311.625L555.125 313.156H540.312L541.562 305.844L551.75 305.906C553.271 305.885 554.656 305.594 555.906 305.031C557.156 304.469 558.188 303.656 559 302.594C559.833 301.51 560.354 300.198 560.562 298.656C560.75 297.302 560.656 296.125 560.281 295.125C559.927 294.125 559.312 293.344 558.438 292.781C557.562 292.219 556.448 291.917 555.094 291.875L547.25 291.844L540.625 330H531.469L539.344 284.5ZM556.375 330L549.812 309.719L559.031 309.656L566.125 329.5V330H556.375Z" fill="#9B287B"/>
<defs>
<filter id="filter0_d_219_7" x="22" y="0" width="311" height="442" filterUnits="userSpaceOnUse" color-interpolation-filters="sRGB">
<feFlood flood-opacity="0" result="BackgroundImageFix"/>
<feColorMatrix in="SourceAlpha" type="matrix" values="0 0 0 0 0 0 0 0 0 0 0 0 0 0 0 0 0 0 127 0" result="hardAlpha"/>
<feMorphology radius="1" operator="dilate" in="SourceAlpha" result="effect1_dropShadow_219_7"/>
<feOffset dx="4" dy="4"/>
<feGaussianBlur stdDeviation="4"/>
<feComposite in2="hardAlpha" operator="out"/>
<feColorMatrix type="matrix" values="0 0 0 0 0 0 0 0 0 0 0 0 0 0 0 0 0 0 0.25 0"/>
<feBlend mode="normal" in2="BackgroundImageFix" result="effect1_dropShadow_219_7"/>
<feBlend mode="normal" in="SourceGraphic" in2="effect1_dropShadow_219_7" result="shape"/>
</filter>
<filter id="filter1_d_219_7" x="134" y="49" width="311" height="442" filterUnits="userSpaceOnUse" color-interpolation-filters="sRGB">
<feFlood flood-opacity="0" result="BackgroundImageFix"/>
<feColorMatrix in="SourceAlpha" type="matrix" values="0 0 0 0 0 0 0 0 0 0 0 0 0 0 0 0 0 0 127 0" result="hardAlpha"/>
<feMorphology radius="1" operator="dilate" in="SourceAlpha" result="effect1_dropShadow_219_7"/>
<feOffset dx="4" dy="4"/>
<feGaussianBlur stdDeviation="4"/>
<feComposite in2="hardAlpha" operator="out"/>
<feColorMatrix type="matrix" values="0 0 0 0 0 0 0 0 0 0 0 0 0 0 0 0 0 0 0.25 0"/>
<feBlend mode="normal" in2="BackgroundImageFix" result="effect1_dropShadow_219_7"/>
<feBlend mode="normal" in="SourceGraphic" in2="effect1_dropShadow_219_7" result="shape"/>
</filter>
<filter id="filter2_d_219_7" x="255" y="102" width="311" height="442" filterUnits="userSpaceOnUse" color-interpolation-filters="sRGB">
<feFlood flood-opacity="0" result="BackgroundImageFix"/>
<feColorMatrix in="SourceAlpha" type="matrix" values="0 0 0 0 0 0 0 0 0 0 0 0 0 0 0 0 0 0 127 0" result="hardAlpha"/>
<feMorphology radius="1" operator="dilate" in="SourceAlpha" result="effect1_dropShadow_219_7"/>
<feOffset dx="4" dy="4"/>
<feGaussianBlur stdDeviation="4"/>
<feComposite in2="hardAlpha" operator="out"/>
<feColorMatrix type="matrix" values="0 0 0 0 0 0 0 0 0 0 0 0 0 0 0 0 0 0 0.25 0"/>
<feBlend mode="normal" in2="BackgroundImageFix" result="effect1_dropShadow_219_7"/>
<feBlend mode="normal" in="SourceGraphic" in2="effect1_dropShadow_219_7" result="shape"/>
</filter>
</defs>
</svg>
